{
  "accessors": [
    {
      "bufferView": 2,
      "componentType": 5126,
      "count": 55127,
      "max": [
        1045.6597900390625,
        4437.0830078125,
        923.30865478515625
      ],
      "min": [
        -2565.99462890625,
        -232.278564453125,
        -2137.163330078125
      ],
      "type": "VEC3"
    },
    {
      "bufferView": 2,
      "byteOffset": 661524,
      "componentType": 5126,
      "count": 55127,
      "max": [
        1,
        1,
        1
      ],
      "min": [
        -1,
        -1,
        -1
      ],
      "type": "VEC3"
    },
    {
      "bufferView": 3,
      "componentType": 5126,
      "count": 55127,
      "max": [
        0.99999994039535522,
        0.99999994039535522,
        0.99999994039535522,
        1
      ],
      "min": [
        -0.99999994039535522,
        -0.99999994039535522,
        -0.99999994039535522,
        -1
      ],
      "type": "VEC4"
    },
    {
      "bufferView": 3,
      "byteOffset": 882032,
      "componentType": 5126,
      "count": 55127,
      "max": [
        0,
        0,
        0,
        1
      ],
      "min": [
        0,
        0,
        0,
        0
      ],
      "type": "VEC4"
    },
    {
      "bufferView": 1,
      "componentType": 5126,
      "count": 55127,
      "max": [
        0.94864863157272339,
        0.95168799161911011
      ],
      "min": [
        0.0076121687889099121,
        0.018410556018352509
      ],
      "type": "VEC2"
    },
    {
      "bufferView": 1,
      "byteOffset": 441016,
      "componentType": 5126,
      "count": 55127,
      "max": [
        0.92249542474746704,
        0.99800801277160645
      ],
      "min": [
        0.0018413045909255743,
        0.001992030069231987
      ],
      "type": "VEC2"
    },
    {
      "bufferView": 0,
      "componentType": 5125,
      "count": 84816,
      "max": [
        55126
      ],
      "min": [
        0
      ],
      "type": "SCALAR"
    }
  ],
  "asset": {
    "extras": {
      "author": "patdunal (https://sketchfab.com/patdunal)",
      "license": "CC-BY-4.0 (http://creativecommons.org/licenses/by/4.0/)",
      "source": "https://sketchfab.com/models/4ebe0b59b4744e45b483f7672712d7af",
      "title": "Troll Attack! - #MedievalFantasyScene"
    },
    "generator": "Sketchfab-3.19.6",
    "version": "2.0"
  },
  "bufferViews": [
    {
      "buffer": 0,
      "byteLength": 339264,
      "byteOffset": 0,
      "name": "floatBufferViews",
      "target": 34963
    },
    {
      "buffer": 0,
      "byteLength": 882032,
      "byteOffset": 339264,
      "byteStride": 8,
      "name": "floatBufferViews",
      "target": 34962
    },
    {
      "buffer": 0,
      "byteLength": 1323048,
      "byteOffset": 1221296,
      "byteStride": 12,
      "name": "floatBufferViews",
      "target": 34962
    },
    {
      "buffer": 0,
      "byteLength": 1764064,
      "byteOffset": 2544344,
      "byteStride": 16,
      "name": "floatBufferViews",
      "target": 34962
    }
  ],
  "buffers": [
    {
      "byteLength": 4308408,
      "uri": "scene.bin"
    }
  ],
  "images": [
    {
      "uri": "textures/lambert5_metallicRoughness.png"
    },
    {
      "uri": "textures/lambert5_baseColor.png"
    }
  ],
  "materials": [
    {
      "doubleSided": true,
      "emissiveFactor": [
        0,
        0,
        0
      ],
      "name": "lambert5",
      "occlusionTexture": {
        "index": 0,
        "strength": 0.83708079270000002,
        "texCoord": 1
      },
      "pbrMetallicRoughness": {
        "baseColorFactor": [
          1,
          1,
          1,
          1
        ],
        "baseColorTexture": {
          "index": 1,
          "texCoord": 0
        },
        "metallicFactor": 0,
        "roughnessFactor": 0.5322027439
      }
    }
  ],
  "meshes": [
    {
      "name": "pCylinder53_lambert5_0",
      "primitives": [
        {
          "attributes": {
            "COLOR_0": 3,
            "NORMAL": 1,
            "POSITION": 0,
            "TANGENT": 2,
            "TEXCOORD_0": 4,
            "TEXCOORD_1": 5
          },
          "indices": 6,
          "material": 0,
          "mode": 4
        }
      ]
    }
  ],
  "nodes": [
    {
      "children": [
        1
      ],
      "name": "RootNode (gltf orientation matrix)",
      "rotation": [
        -0.70710678118654746,
        -0,
        -0,
        0.70710678118654757
      ]
    },
    {
      "children": [
        2
      ],
      "name": "RootNode (model correction matrix)"
    },
    {
      "children": [
        3
      ],
      "matrix": [
        1,
        0,
        0,
        0,
        0,
        0,
        1,
        0,
        0,
        -1,
        0,
        0,
        0,
        0,
        0,
        1
      ],
      "name": "ceb2789fbefb4510bcd2256dd543b71e.fbx"
    },
    {
      "children": [
        4
      ],
      "name": "RootNode"
    },
    {
      "children": [
        5
      ],
      "matrix": [
        -0.01002865285410182,
        1.2281557617535766e-18,
        -0.081095974804442819,
        0,
        7.5651196793711621e-20,
        0.081713713705539703,
        1.2281557617535766e-18,
        0,
        0.081095974804442819,
        7.5651196793711742e-20,
        -0.01002865285410182,
        0,
        42.220603942871094,
        8.9574441909790039,
        -20.016918182373047,
        1
      ],
      "name": "pCylinder53"
    },
    {
      "mesh": 0,
      "name": "pCylinder53_lambert5_0"
    }
  ],
  "samplers": [
    {
      "magFilter": 9729,
      "minFilter": 9987,
      "wrapS": 10497,
      "wrapT": 10497
    }
  ],
  "scene": 0,
  "scenes": [
    {
      "name": "OSG_Scene",
      "nodes": [
        0
      ]
    }
  ],
  "textures": [
    {
      "sampler": 0,
      "source": 0
    },
    {
      "sampler": 0,
      "source": 1
    }
  ]
}

