{
  "accessors": [
    {
      "bufferView": 2,
      "componentType": 5126,
      "count": 388,
      "max": [
        103.07088470458984,
        63.751300811767578,
        31.243068695068359
      ],
      "min": [
        0,
        0.37206649780273438,
        0
      ],
      "type": "VEC3"
    },
    {
      "bufferView": 2,
      "byteOffset": 4656,
      "componentType": 5126,
      "count": 388,
      "max": [
        1,
        1,
        1
      ],
      "min": [
        -1,
        -1,
        -1
      ],
      "type": "VEC3"
    },
    {
      "bufferView": 3,
      "componentType": 5126,
      "count": 388,
      "max": [
        1,
        1,
        1,
        1
      ],
      "min": [
        -1,
        -1,
        -1,
        1
      ],
      "type": "VEC4"
    },
    {
      "bufferView": 1,
      "componentType": 5126,
      "count": 388,
      "max": [
        0.99800002574920654,
        0.9757850170135498
      ],
      "min": [
        0.0020000000949949026,
        0.0020000000949949026
      ],
      "type": "VEC2"
    },
    {
      "bufferView": 0,
      "componentType": 5125,
      "count": 810,
      "max": [
        387
      ],
      "min": [
        0
      ],
      "type": "SCALAR"
    },
    {
      "bufferView": 2,
      "byteOffset": 9312,
      "componentType": 5126,
      "count": 65532,
      "max": [
        102.61436462402344,
        63.112354278564453,
        33.254951477050781
      ],
      "min": [
        0.82672500610351562,
        1.2240829467773438,
        0.24829301238059998
      ],
      "type": "VEC3"
    },
    {
      "bufferView": 2,
      "byteOffset": 795696,
      "componentType": 5126,
      "count": 65532,
      "max": [
        0.99999654293060303,
        0.99990934133529663,
        0.99992871284484863
      ],
      "min": [
        -0.999958336353302,
        -0.99996638298034668,
        -0.99999028444290161
      ],
      "type": "VEC3"
    },
    {
      "bufferView": 3,
      "byteOffset": 6208,
      "componentType": 5126,
      "count": 65532,
      "max": [
        0.99995994567871094,
        0.99992096424102783,
        0.99995726346969604,
        -1
      ],
      "min": [
        -0.99998223781585693,
        -0.9999992847442627,
        -0.99993634223937988,
        -1
      ],
      "type": "VEC4"
    },
    {
      "bufferView": 1,
      "byteOffset": 3104,
      "componentType": 5126,
      "count": 65532,
      "max": [
        0.99416500329971313,
        0.99638199806213379
      ],
      "min": [
        0.0022990000434219837,
        0.0014609999489039183
      ],
      "type": "VEC2"
    },
    {
      "bufferView": 0,
      "byteOffset": 3240,
      "componentType": 5125,
      "count": 337128,
      "max": [
        65531
      ],
      "min": [
        0
      ],
      "type": "SCALAR"
    },
    {
      "bufferView": 2,
      "byteOffset": 1582080,
      "componentType": 5126,
      "count": 18091,
      "max": [
        102.27107238769531,
        62.460315704345703,
        35.590187072753906
      ],
      "min": [
        1.2925224304199219,
        0,
        0.80405104160308838
      ],
      "type": "VEC3"
    },
    {
      "bufferView": 2,
      "byteOffset": 1799172,
      "componentType": 5126,
      "count": 18091,
      "max": [
        0.99977016448974609,
        0.99959349632263184,
        0.99977004528045654
      ],
      "min": [
        -0.99968749284744263,
        -0.99990123510360718,
        -0.99999517202377319
      ],
      "type": "VEC3"
    },
    {
      "bufferView": 3,
      "byteOffset": 1054720,
      "componentType": 5126,
      "count": 18091,
      "max": [
        0.99996048212051392,
        0.99995517730712891,
        0.99992376565933228,
        -1
      ],
      "min": [
        -0.99969303607940674,
        -0.99987918138504028,
        -0.99997192621231079,
        -1
      ],
      "type": "VEC4"
    },
    {
      "bufferView": 1,
      "byteOffset": 527360,
      "componentType": 5126,
      "count": 18091,
      "max": [
        0.99416500329971313,
        0.99638199806213379
      ],
      "min": [
        0.0022990000434219837,
        0.0014609999489039183
      ],
      "type": "VEC2"
    },
    {
      "bufferView": 0,
      "byteOffset": 1351752,
      "componentType": 5125,
      "count": 93336,
      "max": [
        18090
      ],
      "min": [
        0
      ],
      "type": "SCALAR"
    }
  ],
  "asset": {
    "extras": {
      "author": "Francesco Coldesina (https://sketchfab.com/topfrank2013)",
      "license": "CC-BY-4.0 (http://creativecommons.org/licenses/by/4.0/)",
      "source": "https://sketchfab.com/models/ee2fff9467e74d45946f1225f9c4daec",
      "title": "Apple Box"
    },
    "generator": "Sketchfab-3.19.3",
    "version": "2.0"
  },
  "bufferViews": [
    {
      "buffer": 0,
      "byteLength": 1725096,
      "byteOffset": 0,
      "name": "floatBufferViews",
      "target": 34963
    },
    {
      "buffer": 0,
      "byteLength": 672088,
      "byteOffset": 1725096,
      "byteStride": 8,
      "name": "floatBufferViews",
      "target": 34962
    },
    {
      "buffer": 0,
      "byteLength": 2016264,
      "byteOffset": 2397184,
      "byteStride": 12,
      "name": "floatBufferViews",
      "target": 34962
    },
    {
      "buffer": 0,
      "byteLength": 1344176,
      "byteOffset": 4413448,
      "byteStride": 16,
      "name": "floatBufferViews",
      "target": 34962
    }
  ],
  "buffers": [
    {
      "byteLength": 5757624,
      "uri": "scene.bin"
    }
  ],
  "images": [
    {
      "uri": "textures/Cesta_Bend1_normal.png"
    },
    {
      "uri": "textures/Cesta_Bend1_baseColor.jpg"
    },
    {
      "uri": "textures/Mela01_2_normal.png"
    },
    {
      "uri": "textures/Mela01_2_baseColor.jpg"
    }
  ],
  "materials": [
    {
      "doubleSided": true,
      "emissiveFactor": [
        0,
        0,
        0
      ],
      "name": "Cesta_Bend1",
      "normalTexture": {
        "index": 0,
        "scale": 1,
        "texCoord": 0
      },
      "pbrMetallicRoughness": {
        "baseColorFactor": [
          1,
          1,
          1,
          1
        ],
        "baseColorTexture": {
          "index": 1,
          "texCoord": 0
        },
        "metallicFactor": 0,
        "roughnessFactor": 0.62976371949999999
      }
    },
    {
      "doubleSided": true,
      "emissiveFactor": [
        0,
        0,
        0
      ],
      "name": "Mela01_2",
      "normalTexture": {
        "index": 2,
        "scale": 1,
        "texCoord": 0
      },
      "pbrMetallicRoughness": {
        "baseColorFactor": [
          1,
          1,
          1,
          1
        ],
        "baseColorTexture": {
          "index": 3,
          "texCoord": 0
        },
        "metallicFactor": 0,
        "roughnessFactor": 0.43464176830000001
      }
    }
  ],
  "meshes": [
    {
      "primitives": [
        {
          "attributes": {
            "NORMAL": 1,
            "POSITION": 0,
            "TANGENT": 2,
            "TEXCOORD_0": 3
          },
          "indices": 4,
          "material": 0,
          "mode": 4
        }
      ]
    },
    {
      "primitives": [
        {
          "attributes": {
            "NORMAL": 6,
            "POSITION": 5,
            "TANGENT": 7,
            "TEXCOORD_0": 8
          },
          "indices": 9,
          "material": 1,
          "mode": 4
        }
      ]
    },
    {
      "primitives": [
        {
          "attributes": {
            "NORMAL": 11,
            "POSITION": 10,
            "TANGENT": 12,
            "TEXCOORD_0": 13
          },
          "indices": 14,
          "material": 1,
          "mode": 4
        }
      ]
    }
  ],
  "nodes": [
    {
      "children": [
        1
      ],
      "name": "RootNode (gltf orientation matrix)",
      "rotation": [
        -0.70710678118654746,
        -0,
        -0,
        0.70710678118654757
      ]
    },
    {
      "children": [
        2
      ],
      "name": "RootNode (model correction matrix)"
    },
    {
      "children": [
        3
      ],
      "matrix": [
        1,
        0,
        0,
        0,
        0,
        1,
        0,
        0,
        0,
        0,
        1,
        0,
        -51.535442352294922,
        -32.061683654785156,
        0.26720800995826721,
        1
      ],
      "name": "End Mele.obj.cleaner.gles"
    },
    {
      "children": [
        4,
        5,
        6
      ],
      "name": ""
    },
    {
      "mesh": 0,
      "name": ""
    },
    {
      "mesh": 1,
      "name": ""
    },
    {
      "mesh": 2,
      "name": ""
    }
  ],
  "samplers": [
    {
      "magFilter": 9729,
      "minFilter": 9987,
      "wrapS": 10497,
      "wrapT": 10497
    }
  ],
  "scene": 0,
  "scenes": [
    {
      "name": "OSG_Scene",
      "nodes": [
        0
      ]
    }
  ],
  "textures": [
    {
      "sampler": 0,
      "source": 0
    },
    {
      "sampler": 0,
      "source": 1
    },
    {
      "sampler": 0,
      "source": 2
    },
    {
      "sampler": 0,
      "source": 3
    }
  ]
}

